<?xml version="1.0" encoding="UTF-8" standalone="no"?>
<!DOCTYPE svg PUBLIC "-//W3C//DTD SVG 1.1//EN"
 "http://www.w3.org/Graphics/SVG/1.1/DTD/svg11.dtd">
<!-- Generated by graphviz version 2.38.0 (20140413.2041)
 -->
<!-- Title: controllers_diagram Pages: 1 -->
<svg width="488pt" height="298pt"
 viewBox="0.00 0.00 488.02 298.00" xmlns="http://www.w3.org/2000/svg" xmlns:xlink="http://www.w3.org/1999/xlink">
<g id="graph0" class="graph" transform="scale(1 1) rotate(0) translate(4 294)">
<title>controllers_diagram</title>
<polygon fill="white" stroke="none" points="-4,4 -4,-294 484.023,-294 484.023,4 -4,4"/>
<!-- _diagram_info -->
<g id="node1" class="node"><title>_diagram_info</title>
<text text-anchor="start" x="8" y="-265.6" font-family="Times,serif" font-size="13.00">Controllers diagram</text>
<text text-anchor="start" x="8" y="-252.6" font-family="Times,serif" font-size="13.00">Date: Dec 12 2014 &#45; 15:22</text>
<text text-anchor="start" x="8" y="-239.6" font-family="Times,serif" font-size="13.00">Migration version: 20141204172545</text>
<text text-anchor="start" x="8" y="-226.6" font-family="Times,serif" font-size="13.00">Generated by RailRoady 1.2.0</text>
<text text-anchor="start" x="8" y="-213.6" font-family="Times,serif" font-size="13.00">http://railroady.prestonlee.com</text>
</g>
<!-- ApiController -->
<g id="node2" class="node"><title>ApiController</title>
<path fill="none" stroke="black" d="M105.546,-0.5C105.546,-0.5 211.829,-0.5 211.829,-0.5 217.829,-0.5 223.829,-6.5 223.829,-12.5 223.829,-12.5 223.829,-148.5 223.829,-148.5 223.829,-154.5 217.829,-160.5 211.829,-160.5 211.829,-160.5 105.546,-160.5 105.546,-160.5 99.5461,-160.5 93.5461,-154.5 93.5461,-148.5 93.5461,-148.5 93.5461,-12.5 93.5461,-12.5 93.5461,-6.5 99.5461,-0.5 105.546,-0.5"/>
<text text-anchor="middle" x="158.688" y="-145.3" font-family="Times,serif" font-size="14.00">ApiController</text>
<polyline fill="none" stroke="black" points="93.5461,-138.5 223.829,-138.5 "/>
<text text-anchor="start" x="101.546" y="-123.3" font-family="Times,serif" font-size="14.00">index</text>
<text text-anchor="start" x="101.546" y="-109.3" font-family="Times,serif" font-size="14.00">show</text>
<polyline fill="none" stroke="black" points="93.5461,-102.5 223.829,-102.5 "/>
<polyline fill="none" stroke="black" points="93.5461,-78.5 223.829,-78.5 "/>
<text text-anchor="start" x="101.546" y="-63.3" font-family="Times,serif" font-size="14.00">_layout</text>
<text text-anchor="start" x="101.546" y="-49.3" font-family="Times,serif" font-size="14.00">can_access_patient?</text>
<text text-anchor="start" x="101.546" y="-35.3" font-family="Times,serif" font-size="14.00">current_model</text>
<text text-anchor="start" x="101.546" y="-21.3" font-family="Times,serif" font-size="14.00">patient_implicit?</text>
<text text-anchor="start" x="101.546" y="-7.3" font-family="Times,serif" font-size="14.00">verify_access_token</text>
</g>
<!-- ApplicationController -->
<g id="node3" class="node"><title>ApplicationController</title>
<path fill="none" stroke="black" d="M237.867,-197.5C237.867,-197.5 353.509,-197.5 353.509,-197.5 359.509,-197.5 365.509,-203.5 365.509,-209.5 365.509,-209.5 365.509,-277.5 365.509,-277.5 365.509,-283.5 359.509,-289.5 353.509,-289.5 353.509,-289.5 237.867,-289.5 237.867,-289.5 231.867,-289.5 225.867,-283.5 225.867,-277.5 225.867,-277.5 225.867,-209.5 225.867,-209.5 225.867,-203.5 231.867,-197.5 237.867,-197.5"/>
<text text-anchor="middle" x="295.688" y="-274.3" font-family="Times,serif" font-size="14.00">ApplicationController</text>
<polyline fill="none" stroke="black" points="225.867,-267.5 365.509,-267.5 "/>
<polyline fill="none" stroke="black" points="225.867,-243.5 365.509,-243.5 "/>
<polyline fill="none" stroke="black" points="225.867,-219.5 365.509,-219.5 "/>
<text text-anchor="start" x="233.867" y="-204.3" font-family="Times,serif" font-size="14.00">_layout</text>
</g>
<!-- ApplicationController&#45;&gt;ApiController -->
<g id="edge1" class="edge"><title>ApplicationController&#45;&gt;ApiController</title>
<path fill="none" stroke="black" d="M257.161,-197.224C246.793,-185.04 235.284,-171.515 223.897,-158.133"/>
</g>
<!-- HomeController -->
<g id="node4" class="node"><title>HomeController</title>
<path fill="none" stroke="black" d="M253.808,-35.5C253.808,-35.5 337.567,-35.5 337.567,-35.5 343.567,-35.5 349.567,-41.5 349.567,-47.5 349.567,-47.5 349.567,-113.5 349.567,-113.5 349.567,-119.5 343.567,-125.5 337.567,-125.5 337.567,-125.5 253.808,-125.5 253.808,-125.5 247.808,-125.5 241.808,-119.5 241.808,-113.5 241.808,-113.5 241.808,-47.5 241.808,-47.5 241.808,-41.5 247.808,-35.5 253.808,-35.5"/>
<text text-anchor="middle" x="295.688" y="-110.3" font-family="Times,serif" font-size="14.00">HomeController</text>
<polyline fill="none" stroke="black" points="241.808,-103.5 349.567,-103.5 "/>
<text text-anchor="start" x="249.808" y="-88.3" font-family="Times,serif" font-size="14.00">index</text>
<polyline fill="none" stroke="black" points="241.808,-81.5 349.567,-81.5 "/>
<polyline fill="none" stroke="black" points="241.808,-57.5 349.567,-57.5 "/>
<text text-anchor="start" x="249.808" y="-42.3" font-family="Times,serif" font-size="14.00">_layout</text>
</g>
<!-- ApplicationController&#45;&gt;HomeController -->
<g id="edge2" class="edge"><title>ApplicationController&#45;&gt;HomeController</title>
<path fill="none" stroke="black" d="M295.688,-197.224C295.688,-174.809 295.688,-147.856 295.688,-125.603"/>
</g>
<!-- JwksController -->
<g id="node5" class="node"><title>JwksController</title>
<path fill="none" stroke="black" d="M379.912,-35.5C379.912,-35.5 457.464,-35.5 457.464,-35.5 463.464,-35.5 469.464,-41.5 469.464,-47.5 469.464,-47.5 469.464,-113.5 469.464,-113.5 469.464,-119.5 463.464,-125.5 457.464,-125.5 457.464,-125.5 379.912,-125.5 379.912,-125.5 373.912,-125.5 367.912,-119.5 367.912,-113.5 367.912,-113.5 367.912,-47.5 367.912,-47.5 367.912,-41.5 373.912,-35.5 379.912,-35.5"/>
<text text-anchor="middle" x="418.688" y="-110.3" font-family="Times,serif" font-size="14.00">JwksController</text>
<polyline fill="none" stroke="black" points="367.912,-103.5 469.464,-103.5 "/>
<text text-anchor="start" x="375.912" y="-88.3" font-family="Times,serif" font-size="14.00">index</text>
<polyline fill="none" stroke="black" points="367.912,-81.5 469.464,-81.5 "/>
<polyline fill="none" stroke="black" points="367.912,-57.5 469.464,-57.5 "/>
<text text-anchor="start" x="375.912" y="-42.3" font-family="Times,serif" font-size="14.00">_layout</text>
</g>
<!-- ApplicationController&#45;&gt;JwksController -->
<g id="edge3" class="edge"><title>ApplicationController&#45;&gt;JwksController</title>
<path fill="none" stroke="black" d="M330.77,-197.307C339.888,-185.51 349.678,-172.796 358.688,-161 367.4,-149.594 376.769,-137.228 385.455,-125.722"/>
</g>
<!-- TestController -->
<g id="node6" class="node"><title>TestController</title>
<path fill="none" stroke="black" d="M395.352,-198.5C395.352,-198.5 468.023,-198.5 468.023,-198.5 474.023,-198.5 480.023,-204.5 480.023,-210.5 480.023,-210.5 480.023,-276.5 480.023,-276.5 480.023,-282.5 474.023,-288.5 468.023,-288.5 468.023,-288.5 395.352,-288.5 395.352,-288.5 389.352,-288.5 383.352,-282.5 383.352,-276.5 383.352,-276.5 383.352,-210.5 383.352,-210.5 383.352,-204.5 389.352,-198.5 395.352,-198.5"/>
<text text-anchor="middle" x="431.688" y="-273.3" font-family="Times,serif" font-size="14.00">TestController</text>
<polyline fill="none" stroke="black" points="383.352,-266.5 480.023,-266.5 "/>
<text text-anchor="start" x="391.352" y="-251.3" font-family="Times,serif" font-size="14.00">index</text>
<polyline fill="none" stroke="black" points="383.352,-244.5 480.023,-244.5 "/>
<polyline fill="none" stroke="black" points="383.352,-220.5 480.023,-220.5 "/>
<text text-anchor="start" x="391.352" y="-205.3" font-family="Times,serif" font-size="14.00">_layout</text>
</g>
</g>
</svg>
