<?xml version="1.0" encoding="UTF-8" standalone="no"?>
<!DOCTYPE svg PUBLIC "-//W3C//DTD SVG 1.1//EN"
 "http://www.w3.org/Graphics/SVG/1.1/DTD/svg11.dtd">
<!-- Generated by graphviz version 2.38.0 (20140413.2041)
 -->
<!-- Title: models_diagram Pages: 1 -->
<svg width="1447pt" height="1875pt"
 viewBox="0.00 0.00 1446.97 1875.00" xmlns="http://www.w3.org/2000/svg" xmlns:xlink="http://www.w3.org/1999/xlink">
<g id="graph0" class="graph" transform="scale(1 1) rotate(0) translate(4 1871)">
<title>models_diagram</title>
<polygon fill="white" stroke="none" points="-4,4 -4,-1871 1442.97,-1871 1442.97,4 -4,4"/>
<!-- _diagram_info -->
<g id="node1" class="node"><title>_diagram_info</title>
<text text-anchor="start" x="8" y="-1852.6" font-family="Times,serif" font-size="13.00">Models diagram</text>
<text text-anchor="start" x="8" y="-1839.6" font-family="Times,serif" font-size="13.00">Date: Dec 12 2014 &#45; 15:22</text>
<text text-anchor="start" x="8" y="-1826.6" font-family="Times,serif" font-size="13.00">Migration version: 20141204172545</text>
<text text-anchor="start" x="8" y="-1813.6" font-family="Times,serif" font-size="13.00">Generated by RailRoady 1.2.0</text>
<text text-anchor="start" x="8" y="-1800.6" font-family="Times,serif" font-size="13.00">http://railroady.prestonlee.com</text>
</g>
<!-- Application -->
<g id="node2" class="node"><title>Application</title>
<polygon fill="none" stroke="black" points="155.639,-1629.5 155.639,-1673.5 237.736,-1673.5 237.736,-1629.5 155.639,-1629.5"/>
<text text-anchor="middle" x="196.688" y="-1658.3" font-family="Times,serif" font-size="14.00">Application</text>
<polyline fill="none" stroke="black" points="155.639,-1651.5 237.736,-1651.5 "/>
<text text-anchor="middle" x="196.688" y="-1636.3" font-family="Times,serif" font-size="14.00"> </text>
</g>
<!-- Authorization -->
<g id="node3" class="node"><title>Authorization</title>
<path fill="none" stroke="black" d="M348.91,-718.5C348.91,-718.5 494.466,-718.5 494.466,-718.5 500.466,-718.5 506.466,-724.5 506.466,-730.5 506.466,-730.5 506.466,-806.5 506.466,-806.5 506.466,-812.5 500.466,-818.5 494.466,-818.5 494.466,-818.5 348.91,-818.5 348.91,-818.5 342.91,-818.5 336.91,-812.5 336.91,-806.5 336.91,-806.5 336.91,-730.5 336.91,-730.5 336.91,-724.5 342.91,-718.5 348.91,-718.5"/>
<text text-anchor="middle" x="421.688" y="-803.3" font-family="Times,serif" font-size="14.00">Authorization</text>
<polyline fill="none" stroke="black" points="336.91,-796.5 506.466,-796.5 "/>
<text text-anchor="start" x="344.91" y="-781.3" font-family="Times,serif" font-size="14.00">id :integer</text>
<text text-anchor="start" x="344.91" y="-767.3" font-family="Times,serif" font-size="14.00">patient_id :integer</text>
<text text-anchor="start" x="344.91" y="-753.3" font-family="Times,serif" font-size="14.00">authorized_user_id :integer</text>
<text text-anchor="start" x="344.91" y="-739.3" font-family="Times,serif" font-size="14.00">created_at :datetime</text>
<text text-anchor="start" x="344.91" y="-725.3" font-family="Times,serif" font-size="14.00">updated_at :datetime</text>
</g>
<!-- AuthorizationServer -->
<g id="node4" class="node"><title>AuthorizationServer</title>
<polygon fill="none" stroke="black" points="255.539,-1629.5 255.539,-1673.5 385.836,-1673.5 385.836,-1629.5 255.539,-1629.5"/>
<text text-anchor="middle" x="320.688" y="-1658.3" font-family="Times,serif" font-size="14.00">AuthorizationServer</text>
<polyline fill="none" stroke="black" points="255.539,-1651.5 385.836,-1651.5 "/>
<text text-anchor="middle" x="320.688" y="-1636.3" font-family="Times,serif" font-size="14.00"> </text>
</g>
<!-- AuthorizedUser -->
<g id="node5" class="node"><title>AuthorizedUser</title>
<path fill="none" stroke="black" d="M453.738,-1608.5C453.738,-1608.5 587.638,-1608.5 587.638,-1608.5 593.638,-1608.5 599.638,-1614.5 599.638,-1620.5 599.638,-1620.5 599.638,-1682.5 599.638,-1682.5 599.638,-1688.5 593.638,-1694.5 587.638,-1694.5 587.638,-1694.5 453.738,-1694.5 453.738,-1694.5 447.738,-1694.5 441.738,-1688.5 441.738,-1682.5 441.738,-1682.5 441.738,-1620.5 441.738,-1620.5 441.738,-1614.5 447.738,-1608.5 453.738,-1608.5"/>
<text text-anchor="middle" x="520.688" y="-1679.3" font-family="Times,serif" font-size="14.00">AuthorizedUser</text>
<polyline fill="none" stroke="black" points="441.738,-1672.5 599.638,-1672.5 "/>
<text text-anchor="start" x="449.738" y="-1657.3" font-family="Times,serif" font-size="14.00">id :integer</text>
<text text-anchor="start" x="449.738" y="-1643.3" font-family="Times,serif" font-size="14.00">auth_server_user_id :text</text>
<text text-anchor="start" x="449.738" y="-1629.3" font-family="Times,serif" font-size="14.00">created_at :datetime</text>
<text text-anchor="start" x="449.738" y="-1615.3" font-family="Times,serif" font-size="14.00">updated_at :datetime</text>
</g>
<!-- AuthorizedUser&#45;&gt;Authorization -->
<g id="edge4" class="edge"><title>AuthorizedUser&#45;&gt;Authorization</title>
<path fill="none" stroke="#f9c06f" d="M515.043,-1600.26C497.941,-1448.08 446.752,-992.543 428.36,-828.876"/>
<ellipse fill="none" stroke="#f9c06f" cx="515.499" cy="-1604.33" rx="4.00001" ry="4.00001"/>
<polygon fill="#f9c06f" stroke="#f9c06f" points="428.313,-828.462 431.669,-818.022 427.755,-823.493 427.197,-818.524 427.197,-818.524 427.197,-818.524 427.755,-823.493 422.725,-819.027 428.313,-828.462 428.313,-828.462"/>
</g>
<!-- Patient -->
<g id="node10" class="node"><title>Patient</title>
<path fill="none" stroke="black" d="M663.462,-1254.5C663.462,-1254.5 819.914,-1254.5 819.914,-1254.5 825.914,-1254.5 831.914,-1260.5 831.914,-1266.5 831.914,-1266.5 831.914,-1496.5 831.914,-1496.5 831.914,-1502.5 825.914,-1508.5 819.914,-1508.5 819.914,-1508.5 663.462,-1508.5 663.462,-1508.5 657.462,-1508.5 651.462,-1502.5 651.462,-1496.5 651.462,-1496.5 651.462,-1266.5 651.462,-1266.5 651.462,-1260.5 657.462,-1254.5 663.462,-1254.5"/>
<text text-anchor="middle" x="741.688" y="-1493.3" font-family="Times,serif" font-size="14.00">Patient</text>
<polyline fill="none" stroke="black" points="651.462,-1486.5 831.914,-1486.5 "/>
<text text-anchor="start" x="659.462" y="-1471.3" font-family="Times,serif" font-size="14.00">id :integer</text>
<text text-anchor="start" x="659.462" y="-1457.3" font-family="Times,serif" font-size="14.00">givenname :string</text>
<text text-anchor="start" x="659.462" y="-1443.3" font-family="Times,serif" font-size="14.00">familyname :string</text>
<text text-anchor="start" x="659.462" y="-1429.3" font-family="Times,serif" font-size="14.00">gender :string</text>
<text text-anchor="start" x="659.462" y="-1415.3" font-family="Times,serif" font-size="14.00">birthdate :string</text>
<text text-anchor="start" x="659.462" y="-1401.3" font-family="Times,serif" font-size="14.00">telecom :string</text>
<text text-anchor="start" x="659.462" y="-1387.3" font-family="Times,serif" font-size="14.00">address :string</text>
<text text-anchor="start" x="659.462" y="-1373.3" font-family="Times,serif" font-size="14.00">isdeceased :boolean</text>
<text text-anchor="start" x="659.462" y="-1359.3" font-family="Times,serif" font-size="14.00">maritalstatus :string</text>
<text text-anchor="start" x="659.462" y="-1345.3" font-family="Times,serif" font-size="14.00">outsidecontact :string</text>
<text text-anchor="start" x="659.462" y="-1331.3" font-family="Times,serif" font-size="14.00">outsidecontacttelecom :string</text>
<text text-anchor="start" x="659.462" y="-1317.3" font-family="Times,serif" font-size="14.00">outsidecontactaddress :string</text>
<text text-anchor="start" x="659.462" y="-1303.3" font-family="Times,serif" font-size="14.00">primarylanguage :string</text>
<text text-anchor="start" x="659.462" y="-1289.3" font-family="Times,serif" font-size="14.00">active :boolean</text>
<text text-anchor="start" x="659.462" y="-1275.3" font-family="Times,serif" font-size="14.00">created_at :datetime</text>
<text text-anchor="start" x="659.462" y="-1261.3" font-family="Times,serif" font-size="14.00">updated_at :datetime</text>
</g>
<!-- AuthorizedUser&#45;&gt;Patient -->
<g id="edge5" class="edge"><title>AuthorizedUser&#45;&gt;Patient</title>
<path fill="none" stroke="#dc68ea" d="M562.01,-1600.39C585.41,-1572.01 615.732,-1535.24 644.782,-1500.01"/>
<polygon fill="#dc68ea" stroke="#dc68ea" points="561.824,-1600.62 551.99,-1605.47 558.643,-1604.47 555.462,-1608.33 555.462,-1608.33 555.462,-1608.33 558.643,-1604.47 558.934,-1611.19 561.824,-1600.62 561.824,-1600.62"/>
<polygon fill="#dc68ea" stroke="#dc68ea" points="644.986,-1499.77 654.82,-1494.92 648.167,-1495.91 651.348,-1492.05 651.348,-1492.05 651.348,-1492.05 648.167,-1495.91 647.876,-1489.19 644.986,-1499.77 644.986,-1499.77"/>
</g>
<!-- Condition -->
<g id="node6" class="node"><title>Condition</title>
<path fill="none" stroke="black" d="M536.127,-319.5C536.127,-319.5 697.248,-319.5 697.248,-319.5 703.248,-319.5 709.248,-325.5 709.248,-331.5 709.248,-331.5 709.248,-1205.5 709.248,-1205.5 709.248,-1211.5 703.248,-1217.5 697.248,-1217.5 697.248,-1217.5 536.127,-1217.5 536.127,-1217.5 530.127,-1217.5 524.127,-1211.5 524.127,-1205.5 524.127,-1205.5 524.127,-331.5 524.127,-331.5 524.127,-325.5 530.127,-319.5 536.127,-319.5"/>
<text text-anchor="middle" x="616.688" y="-1202.3" font-family="Times,serif" font-size="14.00">Condition</text>
<polyline fill="none" stroke="black" points="524.127,-1195.5 709.248,-1195.5 "/>
<text text-anchor="start" x="532.127" y="-1180.3" font-family="Times,serif" font-size="14.00">id :integer</text>
<text text-anchor="start" x="532.127" y="-1166.3" font-family="Times,serif" font-size="14.00">text_status :string</text>
<text text-anchor="start" x="532.127" y="-1152.3" font-family="Times,serif" font-size="14.00">text :string</text>
<text text-anchor="start" x="532.127" y="-1138.3" font-family="Times,serif" font-size="14.00">system :string</text>
<text text-anchor="start" x="532.127" y="-1124.3" font-family="Times,serif" font-size="14.00">code :string</text>
<text text-anchor="start" x="532.127" y="-1110.3" font-family="Times,serif" font-size="14.00">code_text :string</text>
<text text-anchor="start" x="532.127" y="-1096.3" font-family="Times,serif" font-size="14.00">identifier_use :string</text>
<text text-anchor="start" x="532.127" y="-1082.3" font-family="Times,serif" font-size="14.00">identifier_label :string</text>
<text text-anchor="start" x="532.127" y="-1068.3" font-family="Times,serif" font-size="14.00">identifier_system :string</text>
<text text-anchor="start" x="532.127" y="-1054.3" font-family="Times,serif" font-size="14.00">identifier_value :string</text>
<text text-anchor="start" x="532.127" y="-1040.3" font-family="Times,serif" font-size="14.00">subject_reference :string</text>
<text text-anchor="start" x="532.127" y="-1026.3" font-family="Times,serif" font-size="14.00">subject_text :string</text>
<text text-anchor="start" x="532.127" y="-1012.3" font-family="Times,serif" font-size="14.00">encounter_reference :string</text>
<text text-anchor="start" x="532.127" y="-998.3" font-family="Times,serif" font-size="14.00">encounter_text :string</text>
<text text-anchor="start" x="532.127" y="-984.3" font-family="Times,serif" font-size="14.00">asserter_reference :string</text>
<text text-anchor="start" x="532.127" y="-970.3" font-family="Times,serif" font-size="14.00">asserter_text :string</text>
<text text-anchor="start" x="532.127" y="-956.3" font-family="Times,serif" font-size="14.00">date_asserted :date</text>
<text text-anchor="start" x="532.127" y="-942.3" font-family="Times,serif" font-size="14.00">category_system :string</text>
<text text-anchor="start" x="532.127" y="-928.3" font-family="Times,serif" font-size="14.00">category_code :string</text>
<text text-anchor="start" x="532.127" y="-914.3" font-family="Times,serif" font-size="14.00">category_text :string</text>
<text text-anchor="start" x="532.127" y="-900.3" font-family="Times,serif" font-size="14.00">status :string</text>
<text text-anchor="start" x="532.127" y="-886.3" font-family="Times,serif" font-size="14.00">certainty_system :string</text>
<text text-anchor="start" x="532.127" y="-872.3" font-family="Times,serif" font-size="14.00">certainty_code :string</text>
<text text-anchor="start" x="532.127" y="-858.3" font-family="Times,serif" font-size="14.00">certainty_text :string</text>
<text text-anchor="start" x="532.127" y="-844.3" font-family="Times,serif" font-size="14.00">severity_system :string</text>
<text text-anchor="start" x="532.127" y="-830.3" font-family="Times,serif" font-size="14.00">severity_code :string</text>
<text text-anchor="start" x="532.127" y="-816.3" font-family="Times,serif" font-size="14.00">severity_text :string</text>
<text text-anchor="start" x="532.127" y="-802.3" font-family="Times,serif" font-size="14.00">onset_date :date</text>
<text text-anchor="start" x="532.127" y="-788.3" font-family="Times,serif" font-size="14.00">onset_age_value :string</text>
<text text-anchor="start" x="532.127" y="-774.3" font-family="Times,serif" font-size="14.00">onset_age_units :string</text>
<text text-anchor="start" x="532.127" y="-760.3" font-family="Times,serif" font-size="14.00">onset_age_system :string</text>
<text text-anchor="start" x="532.127" y="-746.3" font-family="Times,serif" font-size="14.00">onset_age_code :string</text>
<text text-anchor="start" x="532.127" y="-732.3" font-family="Times,serif" font-size="14.00">abated :boolean</text>
<text text-anchor="start" x="532.127" y="-718.3" font-family="Times,serif" font-size="14.00">abatement_date :date</text>
<text text-anchor="start" x="532.127" y="-704.3" font-family="Times,serif" font-size="14.00">abatement_age_value :string</text>
<text text-anchor="start" x="532.127" y="-690.3" font-family="Times,serif" font-size="14.00">abatement_age_units :string</text>
<text text-anchor="start" x="532.127" y="-676.3" font-family="Times,serif" font-size="14.00">abatement_age_system :string</text>
<text text-anchor="start" x="532.127" y="-662.3" font-family="Times,serif" font-size="14.00">abatement_age_code :string</text>
<text text-anchor="start" x="532.127" y="-648.3" font-family="Times,serif" font-size="14.00">stage_system :string</text>
<text text-anchor="start" x="532.127" y="-634.3" font-family="Times,serif" font-size="14.00">stage_code :string</text>
<text text-anchor="start" x="532.127" y="-620.3" font-family="Times,serif" font-size="14.00">stage_text :string</text>
<text text-anchor="start" x="532.127" y="-606.3" font-family="Times,serif" font-size="14.00">assessment_reference :string</text>
<text text-anchor="start" x="532.127" y="-592.3" font-family="Times,serif" font-size="14.00">assessment_text :string</text>
<text text-anchor="start" x="532.127" y="-578.3" font-family="Times,serif" font-size="14.00">evidence_system :string</text>
<text text-anchor="start" x="532.127" y="-564.3" font-family="Times,serif" font-size="14.00">evidence_code :string</text>
<text text-anchor="start" x="532.127" y="-550.3" font-family="Times,serif" font-size="14.00">evidence_text :string</text>
<text text-anchor="start" x="532.127" y="-536.3" font-family="Times,serif" font-size="14.00">detail_reference :string</text>
<text text-anchor="start" x="532.127" y="-522.3" font-family="Times,serif" font-size="14.00">detail_text :string</text>
<text text-anchor="start" x="532.127" y="-508.3" font-family="Times,serif" font-size="14.00">location_system :string</text>
<text text-anchor="start" x="532.127" y="-494.3" font-family="Times,serif" font-size="14.00">location_code :string</text>
<text text-anchor="start" x="532.127" y="-480.3" font-family="Times,serif" font-size="14.00">location_text :string</text>
<text text-anchor="start" x="532.127" y="-466.3" font-family="Times,serif" font-size="14.00">location_detail :string</text>
<text text-anchor="start" x="532.127" y="-452.3" font-family="Times,serif" font-size="14.00">related_item_fhir_type :string</text>
<text text-anchor="start" x="532.127" y="-438.3" font-family="Times,serif" font-size="14.00">related_item_system :string</text>
<text text-anchor="start" x="532.127" y="-424.3" font-family="Times,serif" font-size="14.00">related_item_code :string</text>
<text text-anchor="start" x="532.127" y="-410.3" font-family="Times,serif" font-size="14.00">related_item_text :string</text>
<text text-anchor="start" x="532.127" y="-396.3" font-family="Times,serif" font-size="14.00">target_reference :string</text>
<text text-anchor="start" x="532.127" y="-382.3" font-family="Times,serif" font-size="14.00">target_text :string</text>
<text text-anchor="start" x="532.127" y="-368.3" font-family="Times,serif" font-size="14.00">notes :string</text>
<text text-anchor="start" x="532.127" y="-354.3" font-family="Times,serif" font-size="14.00">created_at :datetime</text>
<text text-anchor="start" x="532.127" y="-340.3" font-family="Times,serif" font-size="14.00">updated_at :datetime</text>
<text text-anchor="start" x="532.127" y="-326.3" font-family="Times,serif" font-size="14.00">patient_id :integer</text>
</g>
<!-- Encounter -->
<g id="node7" class="node"><title>Encounter</title>
<path fill="none" stroke="black" d="M777.513,-648.5C777.513,-648.5 895.862,-648.5 895.862,-648.5 901.862,-648.5 907.862,-654.5 907.862,-660.5 907.862,-660.5 907.862,-876.5 907.862,-876.5 907.862,-882.5 901.862,-888.5 895.862,-888.5 895.862,-888.5 777.513,-888.5 777.513,-888.5 771.513,-888.5 765.513,-882.5 765.513,-876.5 765.513,-876.5 765.513,-660.5 765.513,-660.5 765.513,-654.5 771.513,-648.5 777.513,-648.5"/>
<text text-anchor="middle" x="836.688" y="-873.3" font-family="Times,serif" font-size="14.00">Encounter</text>
<polyline fill="none" stroke="black" points="765.513,-866.5 907.862,-866.5 "/>
<text text-anchor="start" x="773.513" y="-851.3" font-family="Times,serif" font-size="14.00">id :integer</text>
<text text-anchor="start" x="773.513" y="-837.3" font-family="Times,serif" font-size="14.00">status :string</text>
<text text-anchor="start" x="773.513" y="-823.3" font-family="Times,serif" font-size="14.00">enc_class :string</text>
<text text-anchor="start" x="773.513" y="-809.3" font-family="Times,serif" font-size="14.00">enc_type :string</text>
<text text-anchor="start" x="773.513" y="-795.3" font-family="Times,serif" font-size="14.00">participant :string</text>
<text text-anchor="start" x="773.513" y="-781.3" font-family="Times,serif" font-size="14.00">participanttype :string</text>
<text text-anchor="start" x="773.513" y="-767.3" font-family="Times,serif" font-size="14.00">start :string</text>
<text text-anchor="start" x="773.513" y="-753.3" font-family="Times,serif" font-size="14.00">length :string</text>
<text text-anchor="start" x="773.513" y="-739.3" font-family="Times,serif" font-size="14.00">priority :string</text>
<text text-anchor="start" x="773.513" y="-725.3" font-family="Times,serif" font-size="14.00">location :string</text>
<text text-anchor="start" x="773.513" y="-711.3" font-family="Times,serif" font-size="14.00">locationperiod :string</text>
<text text-anchor="start" x="773.513" y="-697.3" font-family="Times,serif" font-size="14.00">serviceprovider :string</text>
<text text-anchor="start" x="773.513" y="-683.3" font-family="Times,serif" font-size="14.00">created_at :datetime</text>
<text text-anchor="start" x="773.513" y="-669.3" font-family="Times,serif" font-size="14.00">updated_at :datetime</text>
<text text-anchor="start" x="773.513" y="-655.3" font-family="Times,serif" font-size="14.00">patient_id :integer</text>
</g>
<!-- Observation -->
<g id="node9" class="node"><title>Observation</title>
<path fill="none" stroke="black" d="M781.017,-0.5C781.017,-0.5 892.359,-0.5 892.359,-0.5 898.359,-0.5 904.359,-6.5 904.359,-12.5 904.359,-12.5 904.359,-270.5 904.359,-270.5 904.359,-276.5 898.359,-282.5 892.359,-282.5 892.359,-282.5 781.017,-282.5 781.017,-282.5 775.017,-282.5 769.017,-276.5 769.017,-270.5 769.017,-270.5 769.017,-12.5 769.017,-12.5 769.017,-6.5 775.017,-0.5 781.017,-0.5"/>
<text text-anchor="middle" x="836.688" y="-267.3" font-family="Times,serif" font-size="14.00">Observation</text>
<polyline fill="none" stroke="black" points="769.017,-260.5 904.359,-260.5 "/>
<text text-anchor="start" x="777.017" y="-245.3" font-family="Times,serif" font-size="14.00">id :integer</text>
<text text-anchor="start" x="777.017" y="-231.3" font-family="Times,serif" font-size="14.00">name :string</text>
<text text-anchor="start" x="777.017" y="-217.3" font-family="Times,serif" font-size="14.00">obs_type :string</text>
<text text-anchor="start" x="777.017" y="-203.3" font-family="Times,serif" font-size="14.00">value :string</text>
<text text-anchor="start" x="777.017" y="-189.3" font-family="Times,serif" font-size="14.00">interpretation :string</text>
<text text-anchor="start" x="777.017" y="-175.3" font-family="Times,serif" font-size="14.00">comments :string</text>
<text text-anchor="start" x="777.017" y="-161.3" font-family="Times,serif" font-size="14.00">issued :string</text>
<text text-anchor="start" x="777.017" y="-147.3" font-family="Times,serif" font-size="14.00">period :string</text>
<text text-anchor="start" x="777.017" y="-133.3" font-family="Times,serif" font-size="14.00">status :string</text>
<text text-anchor="start" x="777.017" y="-119.3" font-family="Times,serif" font-size="14.00">reliability :string</text>
<text text-anchor="start" x="777.017" y="-105.3" font-family="Times,serif" font-size="14.00">bodysite :string</text>
<text text-anchor="start" x="777.017" y="-91.3" font-family="Times,serif" font-size="14.00">methodcode :string</text>
<text text-anchor="start" x="777.017" y="-77.3" font-family="Times,serif" font-size="14.00">methodtext :string</text>
<text text-anchor="start" x="777.017" y="-63.3" font-family="Times,serif" font-size="14.00">performer :string</text>
<text text-anchor="start" x="777.017" y="-49.3" font-family="Times,serif" font-size="14.00">created_at :datetime</text>
<text text-anchor="start" x="777.017" y="-35.3" font-family="Times,serif" font-size="14.00">updated_at :datetime</text>
<text text-anchor="start" x="777.017" y="-21.3" font-family="Times,serif" font-size="14.00">patient_id :integer</text>
<text text-anchor="start" x="777.017" y="-7.3" font-family="Times,serif" font-size="14.00">encounter_id :integer</text>
</g>
<!-- Encounter&#45;&gt;Observation -->
<g id="edge8" class="edge"><title>Encounter&#45;&gt;Observation</title>
<path fill="none" stroke="#b28b6c" d="M836.688,-640.443C836.688,-539.832 836.688,-399.041 836.688,-292.826"/>
<ellipse fill="none" stroke="#b28b6c" cx="836.688" cy="-644.471" rx="4" ry="4"/>
<polygon fill="#b28b6c" stroke="#b28b6c" points="836.688,-292.658 841.188,-282.658 836.688,-287.658 836.688,-282.658 836.688,-282.658 836.688,-282.658 836.688,-287.658 832.188,-282.658 836.688,-292.658 836.688,-292.658"/>
</g>
<!-- Medication -->
<g id="node8" class="node"><title>Medication</title>
<path fill="none" stroke="black" d="M938.317,-571.5C938.317,-571.5 1167.06,-571.5 1167.06,-571.5 1173.06,-571.5 1179.06,-577.5 1179.06,-583.5 1179.06,-583.5 1179.06,-953.5 1179.06,-953.5 1179.06,-959.5 1173.06,-965.5 1167.06,-965.5 1167.06,-965.5 938.317,-965.5 938.317,-965.5 932.317,-965.5 926.317,-959.5 926.317,-953.5 926.317,-953.5 926.317,-583.5 926.317,-583.5 926.317,-577.5 932.317,-571.5 938.317,-571.5"/>
<text text-anchor="middle" x="1052.69" y="-950.3" font-family="Times,serif" font-size="14.00">Medication</text>
<polyline fill="none" stroke="black" points="926.317,-943.5 1179.06,-943.5 "/>
<text text-anchor="start" x="934.317" y="-928.3" font-family="Times,serif" font-size="14.00">id :integer</text>
<text text-anchor="start" x="934.317" y="-914.3" font-family="Times,serif" font-size="14.00">name :string</text>
<text text-anchor="start" x="934.317" y="-900.3" font-family="Times,serif" font-size="14.00">system :string</text>
<text text-anchor="start" x="934.317" y="-886.3" font-family="Times,serif" font-size="14.00">code :string</text>
<text text-anchor="start" x="934.317" y="-872.3" font-family="Times,serif" font-size="14.00">text :string</text>
<text text-anchor="start" x="934.317" y="-858.3" font-family="Times,serif" font-size="14.00">is_brand :boolean</text>
<text text-anchor="start" x="934.317" y="-844.3" font-family="Times,serif" font-size="14.00">manufacturer_reference :string</text>
<text text-anchor="start" x="934.317" y="-830.3" font-family="Times,serif" font-size="14.00">manufacturer_text :string</text>
<text text-anchor="start" x="934.317" y="-816.3" font-family="Times,serif" font-size="14.00">kind :string</text>
<text text-anchor="start" x="934.317" y="-802.3" font-family="Times,serif" font-size="14.00">product_form_system :string</text>
<text text-anchor="start" x="934.317" y="-788.3" font-family="Times,serif" font-size="14.00">product_form_code :string</text>
<text text-anchor="start" x="934.317" y="-774.3" font-family="Times,serif" font-size="14.00">product_form_text :string</text>
<text text-anchor="start" x="934.317" y="-760.3" font-family="Times,serif" font-size="14.00">product_ingredient_item_reference :string</text>
<text text-anchor="start" x="934.317" y="-746.3" font-family="Times,serif" font-size="14.00">product_ingredient_item_text :string</text>
<text text-anchor="start" x="934.317" y="-732.3" font-family="Times,serif" font-size="14.00">package_container_system :string</text>
<text text-anchor="start" x="934.317" y="-718.3" font-family="Times,serif" font-size="14.00">package_container_code :string</text>
<text text-anchor="start" x="934.317" y="-704.3" font-family="Times,serif" font-size="14.00">package_container_text :string</text>
<text text-anchor="start" x="934.317" y="-690.3" font-family="Times,serif" font-size="14.00">package_content_item_reference :string</text>
<text text-anchor="start" x="934.317" y="-676.3" font-family="Times,serif" font-size="14.00">package_content_item_text :string</text>
<text text-anchor="start" x="934.317" y="-662.3" font-family="Times,serif" font-size="14.00">package_content_amount_value :string</text>
<text text-anchor="start" x="934.317" y="-648.3" font-family="Times,serif" font-size="14.00">package_content_units :string</text>
<text text-anchor="start" x="934.317" y="-634.3" font-family="Times,serif" font-size="14.00">package_content_system :string</text>
<text text-anchor="start" x="934.317" y="-620.3" font-family="Times,serif" font-size="14.00">package_content_code :string</text>
<text text-anchor="start" x="934.317" y="-606.3" font-family="Times,serif" font-size="14.00">created_at :datetime</text>
<text text-anchor="start" x="934.317" y="-592.3" font-family="Times,serif" font-size="14.00">updated_at :datetime</text>
<text text-anchor="start" x="934.317" y="-578.3" font-family="Times,serif" font-size="14.00">patient_id :integer</text>
</g>
<!-- Patient&#45;&gt;Authorization -->
<g id="edge16" class="edge"><title>Patient&#45;&gt;Authorization</title>
<path fill="none" stroke="#52c827" d="M644.247,-1332.81C598.143,-1305.4 546.374,-1266.68 514.688,-1218 435.432,-1096.23 421.935,-919.821 420.703,-828.792"/>
<ellipse fill="none" stroke="#52c827" cx="647.848" cy="-1334.92" rx="4.00002" ry="4.00002"/>
<polygon fill="#52c827" stroke="#52c827" points="420.701,-828.655 425.112,-818.615 420.657,-823.655 420.612,-818.656 420.612,-818.656 420.612,-818.656 420.657,-823.655 416.112,-818.696 420.701,-828.655 420.701,-828.655"/>
</g>
<!-- Patient&#45;&gt;Condition -->
<g id="edge15" class="edge"><title>Patient&#45;&gt;Condition</title>
<path fill="none" stroke="#c1825d" d="M714.219,-1246.23C712.978,-1240.17 711.711,-1233.97 710.419,-1227.66"/>
<ellipse fill="none" stroke="#c1825d" cx="715.062" cy="-1250.35" rx="4.00001" ry="4.00001"/>
<polygon fill="#c1825d" stroke="#c1825d" points="710.374,-1227.44 712.779,-1216.74 709.372,-1222.54 708.37,-1217.64 708.37,-1217.64 708.37,-1217.64 709.372,-1222.54 703.961,-1218.54 710.374,-1227.44 710.374,-1227.44"/>
</g>
<!-- Patient&#45;&gt;Encounter -->
<g id="edge12" class="edge"><title>Patient&#45;&gt;Encounter</title>
<path fill="none" stroke="#6bb868" d="M762.549,-1246.33C778.63,-1142.9 800.73,-1000.76 816.611,-898.628"/>
<ellipse fill="none" stroke="#6bb868" cx="761.929" cy="-1250.32" rx="4.00001" ry="4.00001"/>
<polygon fill="#6bb868" stroke="#6bb868" points="816.639,-898.442 822.622,-889.252 817.408,-893.501 818.176,-888.561 818.176,-888.561 818.176,-888.561 817.408,-893.501 813.729,-887.869 816.639,-898.442 816.639,-898.442"/>
</g>
<!-- Patient&#45;&gt;Medication -->
<g id="edge14" class="edge"><title>Patient&#45;&gt;Medication</title>
<path fill="none" stroke="#78e6b3" d="M838.157,-1307.59C866.777,-1281.93 895.974,-1251.16 916.688,-1218 962.465,-1144.73 993.665,-1055.08 1014.5,-975.243"/>
<ellipse fill="none" stroke="#78e6b3" cx="835.057" cy="-1310.33" rx="4.00002" ry="4.00002"/>
<polygon fill="#78e6b3" stroke="#78e6b3" points="1014.5,-975.242 1021.35,-966.678 1015.75,-970.4 1017,-965.557 1017,-965.557 1017,-965.557 1015.75,-970.4 1012.64,-964.437 1014.5,-975.242 1014.5,-975.242"/>
</g>
<!-- Patient&#45;&gt;Observation -->
<g id="edge13" class="edge"><title>Patient&#45;&gt;Observation</title>
<path fill="none" stroke="#e29fe1" d="M736.76,-1245.86C728.923,-1000.82 718.163,-491.404 756.688,-319 759.047,-308.442 762.076,-297.752 765.569,-287.129"/>
<ellipse fill="none" stroke="#e29fe1" cx="736.897" cy="-1250.11" rx="4" ry="4"/>
<polygon fill="#e29fe1" stroke="#e29fe1" points="765.661,-286.858 773.158,-278.855 767.281,-282.128 768.901,-277.398 768.901,-277.398 768.901,-277.398 767.281,-282.128 764.644,-275.94 765.661,-286.858 765.661,-286.858"/>
</g>
<!-- User -->
<g id="node11" class="node"><title>User</title>
<path fill="none" stroke="black" d="M1246.41,-1545.5C1246.41,-1545.5 1426.97,-1545.5 1426.97,-1545.5 1432.97,-1545.5 1438.97,-1551.5 1438.97,-1557.5 1438.97,-1557.5 1438.97,-1745.5 1438.97,-1745.5 1438.97,-1751.5 1432.97,-1757.5 1426.97,-1757.5 1426.97,-1757.5 1246.41,-1757.5 1246.41,-1757.5 1240.41,-1757.5 1234.41,-1751.5 1234.41,-1745.5 1234.41,-1745.5 1234.41,-1557.5 1234.41,-1557.5 1234.41,-1551.5 1240.41,-1545.5 1246.41,-1545.5"/>
<text text-anchor="middle" x="1336.69" y="-1742.3" font-family="Times,serif" font-size="14.00">User</text>
<polyline fill="none" stroke="black" points="1234.41,-1735.5 1438.97,-1735.5 "/>
<text text-anchor="start" x="1242.41" y="-1720.3" font-family="Times,serif" font-size="14.00">id :integer</text>
<text text-anchor="start" x="1242.41" y="-1706.3" font-family="Times,serif" font-size="14.00">email :string</text>
<text text-anchor="start" x="1242.41" y="-1692.3" font-family="Times,serif" font-size="14.00">encrypted_password :string</text>
<text text-anchor="start" x="1242.41" y="-1678.3" font-family="Times,serif" font-size="14.00">reset_password_token :string</text>
<text text-anchor="start" x="1242.41" y="-1664.3" font-family="Times,serif" font-size="14.00">reset_password_sent_at :datetime</text>
<text text-anchor="start" x="1242.41" y="-1650.3" font-family="Times,serif" font-size="14.00">remember_created_at :datetime</text>
<text text-anchor="start" x="1242.41" y="-1636.3" font-family="Times,serif" font-size="14.00">sign_in_count :integer</text>
<text text-anchor="start" x="1242.41" y="-1622.3" font-family="Times,serif" font-size="14.00">current_sign_in_at :datetime</text>
<text text-anchor="start" x="1242.41" y="-1608.3" font-family="Times,serif" font-size="14.00">last_sign_in_at :datetime</text>
<text text-anchor="start" x="1242.41" y="-1594.3" font-family="Times,serif" font-size="14.00">current_sign_in_ip :string</text>
<text text-anchor="start" x="1242.41" y="-1580.3" font-family="Times,serif" font-size="14.00">last_sign_in_ip :string</text>
<text text-anchor="start" x="1242.41" y="-1566.3" font-family="Times,serif" font-size="14.00">created_at :datetime</text>
<text text-anchor="start" x="1242.41" y="-1552.3" font-family="Times,serif" font-size="14.00">updated_at :datetime</text>
</g>
<!-- Object -->
<g id="node12" class="node"><title>Object</title>
<ellipse fill="none" stroke="black" cx="258.688" cy="-1830.5" rx="33.8596" ry="18"/>
<text text-anchor="middle" x="258.688" y="-1826.3" font-family="Times,serif" font-size="14.00">Object</text>
</g>
<!-- Object&#45;&gt;Application -->
<g id="edge1" class="edge"><title>Object&#45;&gt;Application</title>
<path fill="none" stroke="black" d="M252.743,-1812.53C241.377,-1780.08 216.59,-1709.32 204.139,-1673.77"/>
</g>
<!-- Object&#45;&gt;AuthorizationServer -->
<g id="edge3" class="edge"><title>Object&#45;&gt;AuthorizationServer</title>
<path fill="none" stroke="black" d="M264.633,-1812.53C275.998,-1780.08 300.785,-1709.32 313.237,-1673.77"/>
</g>
<!-- ActiveRecord::Base -->
<g id="node13" class="node"><title>ActiveRecord::Base</title>
<ellipse fill="none" stroke="black" cx="820.688" cy="-1830.5" rx="81.1422" ry="18"/>
<text text-anchor="middle" x="820.688" y="-1826.3" font-family="Times,serif" font-size="14.00">ActiveRecord::Base</text>
</g>
<!-- ActiveRecord::Base&#45;&gt;Authorization -->
<g id="edge2" class="edge"><title>ActiveRecord::Base&#45;&gt;Authorization</title>
<path fill="none" stroke="black" d="M741.203,-1826.38C639.385,-1820.52 471.401,-1803.98 432.688,-1758 371.923,-1685.84 407.424,-1008.43 418.653,-818.685"/>
</g>
<!-- ActiveRecord::Base&#45;&gt;AuthorizedUser -->
<g id="edge6" class="edge"><title>ActiveRecord::Base&#45;&gt;AuthorizedUser</title>
<path fill="none" stroke="black" d="M762.154,-1817.81C718.564,-1807.16 659.011,-1788.37 613.688,-1758 588.639,-1741.21 566.114,-1716.07 549.508,-1694.54"/>
</g>
<!-- ActiveRecord::Base&#45;&gt;Condition -->
<g id="edge7" class="edge"><title>ActiveRecord::Base&#45;&gt;Condition</title>
<path fill="none" stroke="black" d="M806.969,-1812.46C771.17,-1766.76 675.434,-1636.29 642.688,-1509 618.843,-1416.31 606.674,-1314.94 601.406,-1217.8"/>
</g>
<!-- ActiveRecord::Base&#45;&gt;Encounter -->
<g id="edge9" class="edge"><title>ActiveRecord::Base&#45;&gt;Encounter</title>
<path fill="none" stroke="black" d="M822.124,-1812.49C826.077,-1764.71 837.066,-1625.18 840.688,-1509 847.508,-1290.21 843.469,-1034.83 840.01,-888.648"/>
</g>
<!-- ActiveRecord::Base&#45;&gt;Medication -->
<g id="edge10" class="edge"><title>ActiveRecord::Base&#45;&gt;Medication</title>
<path fill="none" stroke="black" d="M828.004,-1812.42C833.93,-1798.09 842.171,-1776.99 847.688,-1758 926.3,-1487.45 987.017,-1166.91 1021.32,-965.839"/>
</g>
<!-- ActiveRecord::Base&#45;&gt;Observation -->
<g id="edge11" class="edge"><title>ActiveRecord::Base&#45;&gt;Observation</title>
<path fill="none" stroke="black" d="M839.071,-1812.69C853.581,-1798.86 873.791,-1778.3 888.688,-1758 1050.97,-1536.82 1119.06,-1483.61 1187.69,-1218 1287.64,-831.148 1397.36,-659.121 1187.69,-319 1125.94,-218.843 988.041,-173.524 904.648,-154.617"/>
</g>
<!-- ActiveRecord::Base&#45;&gt;Patient -->
<g id="edge17" class="edge"><title>ActiveRecord::Base&#45;&gt;Patient</title>
<path fill="none" stroke="black" d="M817.639,-1812.25C808.891,-1762.75 783.111,-1616.88 763.999,-1508.74"/>
</g>
<!-- ActiveRecord::Base&#45;&gt;User -->
<g id="edge18" class="edge"><title>ActiveRecord::Base&#45;&gt;User</title>
<path fill="none" stroke="black" d="M901.402,-1828.08C985.21,-1823.7 1118.16,-1808.48 1220.69,-1758 1225.21,-1755.78 1229.68,-1753.32 1234.08,-1750.68"/>
</g>
</g>
</svg>
